<?xml version="1.0" encoding="UTF-8"?>
<svg id="Layer_2" data-name="Layer 2" xmlns="http://www.w3.org/2000/svg" viewBox="0 0 604.63 523.55">
  <defs>
    <style>
      .cls-1 {
        fill-rule: evenodd;
      }

      .cls-1, .cls-2 {
        fill: #fff;
        stroke-width: 0px;
      }
    </style>
  </defs>
  <g id="Layer_1-2" data-name="Layer 1">
    <g>
      <path class="cls-2" d="M345.5,317.08l-42.91,74.39-42.91-74.39-64.36,20.62,107.27,185.85,107.27-185.85-64.36-20.62ZM.28,0l104.49,180.83,63.25-22.29-53.5-92.51h375.88l-53.5,92.51,63.25,22.29L604.63,0H0h.28Z"/>
      <polygon class="cls-1" points="603.52 178.6 591.26 227.09 439.68 321.54 422.41 315.97 358.32 295.35 302.6 277.52 247.15 295.35 182.78 315.97 165.51 321.54 13.93 227.09 1.67 178.6 73.56 217.89 117.3 202.57 180.55 180.28 220.4 166.34 302.6 201.17 302.6 201.17 384.79 166.34 424.64 180.28 487.89 202.57 531.91 217.89 603.52 178.6"/>
    </g>
  </g>
</svg>